<?xml version="1.0" encoding="UTF-8"?>
<svg width="24px" height="24px" viewBox="0 0 24 24" version="1.1" xmlns="http://www.w3.org/2000/svg" xmlns:xlink="http://www.w3.org/1999/xlink">
    <!-- Generator: sketchtool 50.2 (55047) - http://www.bohemiancoding.com/sketch -->
    <title>F971F755-F3F1-4239-8A49-3C17DFF4BB89</title>
    <desc>Created with sketchtool.</desc>
    <defs>
        <path d="M17.8131588,4.47 C17.7331588,4.47 17.6531588,4.45 17.5831588,4.41 C15.6631588,3.42 14.0031588,3 12.0131588,3 C10.0331588,3 8.15315877,3.47 6.44315877,4.41 C6.20315877,4.54 5.90315877,4.45 5.76315877,4.21 C5.63315877,3.97 5.72315877,3.66 5.96315877,3.53 C7.82315877,2.52 9.86315877,2 12.0131588,2 C14.1431588,2 16.0031588,2.47 18.0431588,3.52 C18.2931588,3.65 18.3831588,3.95 18.2531588,4.19 C18.1631588,4.37 17.9931588,4.47 17.8131588,4.47 Z M3.50315877,9.72 C3.40315877,9.72 3.30315877,9.69 3.21315877,9.63 C2.98315877,9.47 2.93315877,9.16 3.09315877,8.93 C4.08315877,7.53 5.34315877,6.43 6.84315877,5.66 C9.98315877,4.04 14.0031588,4.03 17.1531588,5.65 C18.6531588,6.42 19.9131588,7.51 20.9031588,8.9 C21.0631588,9.12 21.0131588,9.44 20.7831588,9.6 C20.5531588,9.76 20.2431588,9.71 20.0831588,9.48 C19.1831588,8.22 18.0431588,7.23 16.6931588,6.54 C13.8231588,5.07 10.1531588,5.07 7.29315877,6.55 C5.93315877,7.25 4.79315877,8.25 3.89315877,9.51 C3.81315877,9.65 3.66315877,9.72 3.50315877,9.72 Z M9.75315877,21.79 C9.62315877,21.79 9.49315877,21.74 9.40315877,21.64 C8.53315877,20.77 8.06315877,20.21 7.39315877,19 C6.70315877,17.77 6.34315877,16.27 6.34315877,14.66 C6.34315877,11.69 8.88315877,9.27 12.0031588,9.27 C15.1231588,9.27 17.6631588,11.69 17.6631588,14.66 C17.6631588,14.94 17.4431588,15.16 17.1631588,15.16 C16.8831588,15.16 16.6631588,14.94 16.6631588,14.66 C16.6631588,12.24 14.5731588,10.27 12.0031588,10.27 C9.43315877,10.27 7.34315877,12.24 7.34315877,14.66 C7.34315877,16.1 7.66315877,17.43 8.27315877,18.51 C8.91315877,19.66 9.35315877,20.15 10.1231588,20.93 C10.3131588,21.13 10.3131588,21.44 10.1231588,21.64 C10.0131588,21.74 9.88315877,21.79 9.75315877,21.79 Z M16.9231588,19.94 C15.7331588,19.94 14.6831588,19.64 13.8231588,19.05 C12.3331588,18.04 11.4431588,16.4 11.4431588,14.66 C11.4431588,14.38 11.6631588,14.16 11.9431588,14.16 C12.2231588,14.16 12.4431588,14.38 12.4431588,14.66 C12.4431588,16.07 13.1631588,17.4 14.3831588,18.22 C15.0931588,18.7 15.9231588,18.93 16.9231588,18.93 C17.1631588,18.93 17.5631588,18.9 17.9631588,18.83 C18.2331588,18.78 18.4931588,18.96 18.5431588,19.24 C18.5931588,19.51 18.4131588,19.77 18.1331588,19.82 C17.5631588,19.93 17.0631588,19.94 16.9231588,19.94 Z M14.9131588,22 C14.8731588,22 14.8231588,21.99 14.7831588,21.98 C13.1931588,21.54 12.1531588,20.95 11.0631588,19.88 C9.66315877,18.49 8.89315877,16.64 8.89315877,14.66 C8.89315877,13.04 10.2731588,11.72 11.9731588,11.72 C13.6731588,11.72 15.0531588,13.04 15.0531588,14.66 C15.0531588,15.73 15.9831588,16.6 17.1331588,16.6 C18.2831588,16.6 19.2131588,15.73 19.2131588,14.66 C19.2131588,10.89 15.9631588,7.83 11.9631588,7.83 C9.12315877,7.83 6.52315877,9.41 5.35315877,11.86 C4.96315877,12.67 4.76315877,13.62 4.76315877,14.66 C4.76315877,15.44 4.83315877,16.67 5.43315877,18.27 C5.53315877,18.53 5.40315877,18.82 5.14315877,18.91 C4.88315877,19.01 4.59315877,18.87 4.50315877,18.62 C4.01315877,17.31 3.77315877,16.01 3.77315877,14.66 C3.77315877,13.46 4.00315877,12.37 4.45315877,11.42 C5.78315877,8.63 8.73315877,6.82 11.9631588,6.82 C16.5131588,6.82 20.2131588,10.33 20.2131588,14.65 C20.2131588,16.27 18.8331588,17.59 17.1331588,17.59 C15.4331588,17.59 14.0531588,16.27 14.0531588,14.65 C14.0531588,13.58 13.1231588,12.71 11.9731588,12.71 C10.8231588,12.71 9.89315877,13.58 9.89315877,14.65 C9.89315877,16.36 10.5531588,17.96 11.7631588,19.16 C12.7131588,20.1 13.6231588,20.62 15.0331588,21.01 C15.3031588,21.08 15.4531588,21.36 15.3831588,21.62 C15.3331588,21.85 15.1231588,22 14.9131588,22 Z" id="path-1"></path>
    </defs>
    <g id="Symbols" stroke="none" stroke-width="1" fill="none" fill-rule="evenodd">
        <g id="Icon-/-Fingerprint-/-Filled">
            <mask id="mask-2" fill="white">
                <use xlink:href="#path-1"></use>
            </mask>
            <g id="Mask" fill-rule="nonzero"></g>
            <g id="✱-/-Color-/-Icons-/-Selected-/-On-Surface-/-Inactive" mask="url(#mask-2)" fill="#000000" fill-opacity="0.54">
                <rect id="Rectangle" x="0" y="0" width="24" height="24"></rect>
            </g>
        </g>
    </g>
</svg>