<?xml version="1.0" encoding="UTF-8"?>
<svg width="615px" height="50px" viewBox="0 0 615 50" version="1.1" xmlns="http://www.w3.org/2000/svg" xmlns:xlink="http://www.w3.org/1999/xlink">
    <!-- Generator: sketchtool 50.2 (55047) - http://www.bohemiancoding.com/sketch -->
    <title>C689E9DD-1676-418F-88F8-3EA2591A476A</title>
    <desc>Created with sketchtool.</desc>
    <defs></defs>
    <g id="Page-1" stroke="none" stroke-width="1" fill="none" fill-rule="evenodd" opacity="0.33" stroke-linecap="round">
        <g id="Numart-–-Homepage" transform="translate(-57.000000, -900.000000)" stroke="#E78300">
            <g id="Bloc-accès-site-News" transform="translate(0.000000, 900.000000)">
                <g id="Contenu-bloc-accès-Digitalarti-News" transform="translate(-147.000000, -700.000000)">
                    <path d="M180.361702,303.410111 L532.648936,122 M875.095745,346.5563 L532.648936,122 M548.393617,288.701184 L532.648936,122 M875.095745,346.5563 L548.393617,288.701184 M180.361702,303.410111 L548.393617,288.701184 M306.319149,648.579621 L548.393617,288.701184 M737.329787,673.094501 L548.393617,288.701184 M306.319149,648.579621 L737.329787,673.094501 M875.095745,346.5563 L737.329787,673.094501 M839.670213,741.736165 L875.095745,346.5563 M737.329787,673.094501 L839.670213,741.736165 M490.335106,925.107466 L737.329787,673.094501 M306.319149,648.579621 L180.361702,303.410111 M141,699.570571 L180.361702,303.410111 M306.319149,648.579621 L141,699.570571 M141,699.570571 L490.335106,925.107466 M306.319149,648.579621 L490.335106,925.107466 M839.670213,741.736165 L490.335106,925.107466" id="Imported-Layers-2" transform="translate(511.000000, 527.966412) rotate(206.000000) translate(-511.000000, -527.966412) "></path>
                </g>
            </g>
        </g>
    </g>
</svg>