<?xml version="1.0" encoding="UTF-8"?>
<svg width="692px" height="525px" viewBox="0 0 692 525" version="1.1" xmlns="http://www.w3.org/2000/svg" xmlns:xlink="http://www.w3.org/1999/xlink">
    <!-- Generator: sketchtool 50.2 (55047) - http://www.bohemiancoding.com/sketch -->
    <title>60DAA86D-6620-40F8-AE47-FD3B99047819</title>
    <desc>Created with sketchtool.</desc>
    <defs></defs>
    <g id="Page-1" stroke="none" stroke-width="1" fill="none" fill-rule="evenodd" opacity="0.33" stroke-linecap="round">
        <g id="Numart-–-Homepage" transform="translate(0.000000, -4612.000000)" stroke="#E78300">
            <g id="Bloc-Artlab" transform="translate(0.000000, 3977.000000)">
                <g id="Contenu-fonds-décalés-bas" transform="translate(0.000000, 628.000000)">
                    <g transform="translate(-148.000000, -130.000000)" id="Imported-Layers-3">
                        <path d="M115.603774,249.752822 L467.891008,68.342711 M810.337817,292.899011 L467.891008,68.342711 M483.635689,235.043895 L467.891008,68.342711 M810.337817,292.899011 L483.635689,235.043895 M115.603774,249.752822 L483.635689,235.043895 M241.561221,594.922332 L483.635689,235.043895 M672.571859,619.437212 L483.635689,235.043895 M241.561221,594.922332 L672.571859,619.437212 M810.337817,292.899011 L672.571859,619.437212 M774.912285,688.078876 L810.337817,292.899011 M672.571859,619.437212 L774.912285,688.078876 M425.577179,871.450177 L672.571859,619.437212 M241.561221,594.922332 L115.603774,249.752822 M76.2420721,645.913282 L115.603774,249.752822 M241.561221,594.922332 L76.2420721,645.913282 M76.2420721,645.913282 L425.577179,871.450177 M241.561221,594.922332 L425.577179,871.450177 M774.912285,688.078876 L425.577179,871.450177" transform="translate(443.289944, 469.896444) rotate(192.000000) translate(-443.289944, -469.896444) "></path>
                    </g>
                </g>
            </g>
        </g>
    </g>
</svg>