<?xml version="1.0" encoding="UTF-8"?>
<svg width="501px" height="441px" viewBox="0 0 501 441" version="1.1" xmlns="http://www.w3.org/2000/svg" xmlns:xlink="http://www.w3.org/1999/xlink">
    <!-- Generator: sketchtool 50.2 (55047) - http://www.bohemiancoding.com/sketch -->
    <title>354DCA8E-9916-4724-9349-A2344E054EC7</title>
    <desc>Created with sketchtool.</desc>
    <defs></defs>
    <g id="Page-1" stroke="none" stroke-width="1" fill="none" fill-rule="evenodd" opacity="0.33" stroke-linecap="round">
        <g id="Numart-–-Homepage" transform="translate(-799.000000, -3536.000000)" stroke="#FFFFFF" stroke-width="2">
            <g id="Bloc-coproductions" transform="translate(0.000000, 3142.000000)">
                <g id="Contenu-bloc-coproductions" transform="translate(90.000000, 49.000000)">
                    <path d="M754.423397,448.39951 L990.819088,326.667683 M1220.61155,477.351944 L990.819088,326.667683 M1001.38426,438.529361 L990.819088,326.667683 M1220.61155,477.351944 L1001.38426,438.529361 M754.423397,448.39951 L1001.38426,438.529361 M838.944761,680.018985 L1001.38426,438.529361 M1128.1663,696.469232 L1001.38426,438.529361 M838.944761,680.018985 L1128.1663,696.469232 M1220.61155,477.351944 L1128.1663,696.469232 M1196.83991,742.529923 L1220.61155,477.351944 M1128.1663,696.469232 L1196.83991,742.529923 M962.425192,865.57777 L1128.1663,696.469232 M838.944761,680.018985 L754.423397,448.39951 M728.010471,714.235499 L754.423397,448.39951 M838.944761,680.018985 L728.010471,714.235499 M728.010471,714.235499 L962.425192,865.57777 M838.944761,680.018985 L962.425192,865.57777 M1196.83991,742.529923 L962.425192,865.57777" id="Imported-Layers-4" transform="translate(976.291978, 599.083771) rotate(92.000000) translate(-976.291978, -599.083771) "></path>
                </g>
            </g>
        </g>
    </g>
</svg>