<?xml version="1.0" encoding="UTF-8"?>
<svg width="50px" height="50px" viewBox="0 0 50 50" version="1.1" xmlns="http://www.w3.org/2000/svg" xmlns:xlink="http://www.w3.org/1999/xlink">
    <!-- Generator: sketchtool 50.2 (55047) - http://www.bohemiancoding.com/sketch -->
    <title>043C4E79-C651-4EA8-87CC-451A4D27F480</title>
    <desc>Created with sketchtool.</desc>
    <defs>
        <path d="M31.6661242,25 C31.6661242,21.3284238 28.6715762,18.3338758 25,18.3338758 C21.3284238,18.3338758 18.3338758,21.3284238 18.3338758,25 C18.3338758,28.6715762 21.3284238,31.6661242 25,31.6661242 C28.6715762,31.6661242 31.6661242,28.6715762 31.6661242,25 Z M35.2595817,25 C35.2595817,30.6766214 30.6766214,35.2595817 25,35.2595817 C19.3233786,35.2595817 14.7404183,30.6766214 14.7404183,25 C14.7404183,19.3233786 19.3233786,14.7404183 25,14.7404183 C30.6766214,14.7404183 35.2595817,19.3233786 35.2595817,25 Z M38.0718529,14.3237855 C38.0718529,15.6518024 37.0042314,16.7194239 35.6762145,16.7194239 C34.3481976,16.7194239 33.2805761,15.6518024 33.2805761,14.3237855 C33.2805761,12.9957686 34.3481976,11.9281471 35.6762145,11.9281471 C37.0042314,11.9281471 38.0718529,12.9957686 38.0718529,14.3237855 Z M25,8.59508504 C22.0835707,8.59508504 15.8340793,8.36072911 13.204085,9.40231101 C12.2927008,9.76686468 11.6156726,10.209537 10.9126048,10.9126048 C10.209537,11.6156726 9.76686468,12.2927008 9.40231101,13.204085 C8.36072911,15.8340793 8.59508504,22.0835707 8.59508504,25 C8.59508504,27.9164293 8.36072911,34.1659207 9.40231101,36.795915 C9.76686468,37.7072992 10.209537,38.3843274 10.9126048,39.0873952 C11.6156726,39.790463 12.2927008,40.2331353 13.204085,40.597689 C15.8340793,41.6392709 22.0835707,41.404915 25,41.404915 C27.9164293,41.404915 34.1659207,41.6392709 36.795915,40.597689 C37.7072992,40.2331353 38.3843274,39.790463 39.0873952,39.0873952 C39.790463,38.3843274 40.2331353,37.7072992 40.597689,36.795915 C41.6392709,34.1659207 41.404915,27.9164293 41.404915,25 C41.404915,22.0835707 41.6392709,15.8340793 40.597689,13.204085 C40.2331353,12.2927008 39.790463,11.6156726 39.0873952,10.9126048 C38.3843274,10.209537 37.7072992,9.76686468 36.795915,9.40231101 C34.1659207,8.36072911 27.9164293,8.59508504 25,8.59508504 Z M44.9983725,25 C44.9983725,27.760192 45.0244121,30.4943445 44.8681748,33.2545366 C44.7119375,36.4574009 43.9828302,39.2957116 41.6392709,41.6392709 C39.2957116,43.9828302 36.4574009,44.7119375 33.2545366,44.8681748 C30.4943445,45.0244121 27.760192,44.9983725 25,44.9983725 C22.239808,44.9983725 19.5056555,45.0244121 16.7454634,44.8681748 C13.5425991,44.7119375 10.7042884,43.9828302 8.36072911,41.6392709 C6.01716983,39.2957116 5.28806249,36.4574009 5.13182521,33.2545366 C4.97558792,30.4943445 5.00162747,27.760192 5.00162747,25 C5.00162747,22.239808 4.97558792,19.5056555 5.13182521,16.7454634 C5.28806249,13.5425991 6.01716983,10.7042884 8.36072911,8.36072911 C10.7042884,6.01716983 13.5425991,5.28806249 16.7454634,5.13182521 C19.5056555,4.97558792 22.239808,5.00162747 25,5.00162747 C27.760192,5.00162747 30.4943445,4.97558792 33.2545366,5.13182521 C36.4574009,5.28806249 39.2957116,6.01716983 41.6392709,8.36072911 C43.9828302,10.7042884 44.7119375,13.5425991 44.8681748,16.7454634 C45.0244121,19.5056555 44.9983725,22.239808 44.9983725,25 Z" id="path-1"></path>
    </defs>
    <g id="Global/Icons" stroke="none" stroke-width="1" fill="none" fill-rule="evenodd">
        <g id="icon/social/instagram">
            <mask id="mask-2" fill="white">
                <use xlink:href="#path-1"></use>
            </mask>
            <use id="Mask" fill="#000000" fill-rule="nonzero" xlink:href="#path-1"></use>
            <g id="colors/gray-dark" mask="url(#mask-2)" fill="#3C3C3C">
                <rect id="Rectangle" x="0" y="0" width="50" height="50"></rect>
            </g>
        </g>
    </g>
</svg>