<?xml version="1.0" encoding="UTF-8"?>
<svg width="50px" height="50px" viewBox="0 0 50 50" version="1.1" xmlns="http://www.w3.org/2000/svg" xmlns:xlink="http://www.w3.org/1999/xlink">
    <!-- Generator: sketchtool 50.2 (55047) - http://www.bohemiancoding.com/sketch -->
    <title>63F1DB42-F1D0-44CF-BCA0-2F0A7319EF14</title>
    <desc>Created with sketchtool.</desc>
    <defs>
        <path d="M45,12.857868 C43.8832487,14.4822335 42.4873096,15.928934 40.8883249,17.0964467 C40.9137056,17.4517766 40.9137056,17.8071066 40.9137056,18.1624365 C40.9137056,29 32.6649746,41.4873096 17.5888325,41.4873096 C12.9441624,41.4873096 8.62944162,40.142132 5,37.8071066 C5.65989848,37.8832487 6.29441624,37.9086294 6.97969543,37.9086294 C10.8121827,37.9086294 14.3401015,36.6142132 17.1573604,34.4060914 C13.5532995,34.3299492 10.5329949,31.9695431 9.49238579,28.7208122 C10,28.7969543 10.5076142,28.8477157 11.0406091,28.8477157 C11.7766497,28.8477157 12.5126904,28.7461929 13.1979695,28.5685279 C9.44162437,27.8071066 6.62436548,24.5076142 6.62436548,20.5228426 L6.62436548,20.4213198 C7.71573604,21.0304569 8.98477157,21.4111675 10.3299492,21.4619289 C8.12182741,19.9898477 6.6751269,17.4771574 6.6751269,14.6345178 C6.6751269,13.1116751 7.08121827,11.715736 7.79187817,10.4974619 C11.8274112,15.4720812 17.893401,18.7208122 24.6954315,19.0761421 C24.5685279,18.4670051 24.4923858,17.8324873 24.4923858,17.1979695 C24.4923858,12.680203 28.1472081,9 32.6903553,9 C35.0507614,9 37.1827411,9.98984772 38.680203,11.5888325 C40.5329949,11.2335025 42.3096447,10.5482234 43.8832487,9.60913706 C43.2741117,11.5126904 41.9796954,13.1116751 40.2791878,14.1269036 C41.928934,13.9492386 43.5279188,13.4923858 45,12.857868 Z" id="path-1"></path>
    </defs>
    <g id="Global/Icons" stroke="none" stroke-width="1" fill="none" fill-rule="evenodd">
        <g id="icon/social/twitter">
            <mask id="mask-2" fill="white">
                <use xlink:href="#path-1"></use>
            </mask>
            <use id="Mask" fill="#000000" fill-rule="nonzero" xlink:href="#path-1"></use>
            <g id="colors/gray-dark" mask="url(#mask-2)" fill="#3C3C3C">
                <rect id="Rectangle" x="0" y="0" width="50" height="50"></rect>
            </g>
        </g>
    </g>
</svg>